# Blender v2.92.0 OBJ File: ''
# www.blender.org
mtllib blockv3.mtl
o Cube.003
v 0.029659 0.079334 0.045358
v 0.029659 0.079334 2.045358
v 0.413988 2.000000 0.045357
v -0.046184 0.079334 2.045358
v -0.046184 0.079334 0.045358
v -0.430384 2.000000 0.045358
vt 0.625000 0.500000
vt 0.625000 0.750000
vt 0.375000 0.750000
vt 0.625000 0.750000
vt 0.625000 0.500000
vt 0.375000 0.750000
vn -0.9806 0.1962 0.0000
vn 0.0000 1.0000 -0.0000
vn 0.9806 0.1961 -0.0000
usemtl Material.005
s 1
f 1/1/1 2/2/1 3/3/1
f 1/1/2 4/4/2 2/2/2
f 1/1/2 5/5/2 4/4/2
usemtl Material.006
f 5/5/3 6/6/3 4/4/3
